<svg xmlns="http://www.w3.org/2000/svg" width="31" height="31" viewBox="0 0 31 31">
    <g fill="none" fill-rule="nonzero">
        <path fill="#0E76A8" d="M15.5 0C24.06 0 31 6.94 31 15.5 31 24.06 24.06 31 15.5 31 6.94 31 0 24.06 0 15.5 0 6.94 6.94 0 15.5 0z"/>
        <path fill="#FFF" d="M9.016 22h2.995v-9.998H9.016V22zm11.667-10.344c-1.454 0-2.754.532-3.677 1.705V11.97h-3.005V22h3.005v-5.424c0-1.147 1.049-2.265 2.362-2.265 1.314 0 1.637 1.118 1.637 2.237v5.451H24v-5.674c0-3.942-1.863-4.669-3.317-4.669zm-10.184-.653A1.501 1.501 0 0 0 10.5 8a1.501 1.501 0 0 0 0 3.003z"/>
    </g>
</svg>
